<?xml version="1.0" standalone="no"?><!DOCTYPE svg PUBLIC "-//W3C//DTD SVG 1.1//EN" "http://www.w3.org/Graphics/SVG/1.1/DTD/svg11.dtd"><svg t="1572884625200" class="icon" viewBox="0 0 1024 1024" version="1.1" xmlns="http://www.w3.org/2000/svg" p-id="1183" xmlns:xlink="http://www.w3.org/1999/xlink" width="200" height="200"><defs><style type="text/css"></style></defs><path d="M514 114.3c-219.9 0-398.8 178.9-398.8 398.8 0 220 178.9 398.9 398.8 398.9s398.8-178.9 398.8-398.9c0-219.8-178.9-398.8-398.8-398.8z m205.7 392.2L555.5 670.6c-22.9 22.9-60.2 22.9-83.1 0L308.3 506.5c-22.9-22.9-22.9-60.2 0-83.1 11.5-11.5 26.5-17.2 41.5-17.2s30.1 5.7 41.5 17.2L514 546l122.6-122.6c22.9-22.9 60.2-22.9 83.1 0 22.9 23 22.9 60.2 0 83.1z" p-id="1184" fill="#ffffff"></path></svg>