<?xml version="1.0" standalone="no"?><!DOCTYPE svg PUBLIC "-//W3C//DTD SVG 1.1//EN" "http://www.w3.org/Graphics/SVG/1.1/DTD/svg11.dtd"><svg t="1572894290869" class="icon" viewBox="0 0 1024 1024" version="1.1" xmlns="http://www.w3.org/2000/svg" p-id="1490" xmlns:xlink="http://www.w3.org/1999/xlink" width="200" height="200"><defs><style type="text/css"></style></defs><path d="M81.522712 687.094854c14.471596 14.285355 37.747719 14.2127 52.071959-0.224104l377.321648-380.777353 382.585535 379.158483c14.471596 14.32424 37.748742 14.217816 52.112891-0.218988 14.33038-14.477736 14.217816-37.787628-0.218988-52.118008L538.761504 229.962485c-0.62831-0.623193-1.438769-0.769526-2.061962-1.359974-0.152473-0.145309-0.185218-0.330528-0.332575-0.477884-7.181563-7.108908-16.57756-10.683317-25.928532-10.683317-9.463536 0-18.96698 3.647063-26.148543 10.902304L81.33647 634.977869C66.973344 649.453558 67.084884 672.765497 81.522712 687.094854L81.522712 687.094854zM81.522712 687.094854" p-id="1491" fill="#ffffff"></path></svg>