<svg xmlns="http://www.w3.org/2000/svg" viewBox="0 0 519.68 643.03"><defs><style>.path{fill:none;stroke:#fff;stroke-miterlimit:10;}.path{stroke-width:3px;}</style></defs><title>正式效果</title><g id="图层_2" data-name="图层 2"><g id="图层_19" data-name="图层 19"><g id="正式效果"><path class="path" d="M32,284a398.84,398.84,0,0,1-7-63c-.76-25.09-1.31-43.35,5-67a178.92,178.92,0,0,1,21-48C65.3,83.1,81,69.43,92,60a246.76,246.76,0,0,1,80-46C207.34,2.14,235.8,2.07,266,2c17.68,0,35.14,0,58,5a224.65,224.65,0,0,1,63,24,238.27,238.27,0,0,1,40,29,208.12,208.12,0,0,1,30,32c7.39,9.86,22,29.75,30,59,6,21.93,5.62,39.24,5,66-.58,25.48-.88,38.22-4,50-.37,1.4-3.57,13.4-2,14,1.33.5,4-7.87,12-13,3.06-2,8-5.53,12-4,5.11,1.92,6,10.73,7,21,.67,6.74,1.47,15.53-1,27-1.7,7.9-4.13,13.27-9,24-6.59,14.53-8.13,14-11,23a69.38,69.38,0,0,0-4,24c.18,6.81,1.39,8.79,1,15a41.69,41.69,0,0,1-5,18c-.71,1.27-3.3,5.87-6,8-4.05,3.19-7.57.13-11,3-2.15,1.79-2.48,4.43-3,8,0,0-2,14-5,27a110.59,110.59,0,0,1-4,13,213.07,213.07,0,0,1-15,33c-7.95,14.6-15.94,29.27-30,47a293.66,293.66,0,0,1-31,33c-12.23,11.23-22.6,20.74-39,30a182.88,182.88,0,0,1-39,16,163.11,163.11,0,0,1-43,7c-28.18.49-49.28-7.59-63-13-31.64-12.49-51.82-30.11-63-40-26.87-23.78-41.39-48.32-58-76a187.79,187.79,0,0,1-11-21c-6.08-13.75-9.17-26.67-12-38-1.07-4.32-2-8.66-3-13-1.12-5.11-1.46-7-3-9-2.92-3.77-6.7-2.77-11-5-7.38-3.84-9.64-13.3-11-19-2.55-10.72,1.21-12.32,0-26-.82-9.36-3.26-16.25-6-24-4.41-12.51-6.61-13.17-11-24a112.89,112.89,0,0,1-8-42c.07-8.69.2-23.5,7-26,4.06-1.5,9,1.93,12,4A29.59,29.59,0,0,1,32,284Z"/><path class="path" d="M82.5,69.51c.25,11.54,2.44,30,14,48,3.68,5.7,7.07,9.45,13,16,14.6,16.1,25.2,23.47,40,36a394.16,394.16,0,0,1,37,35c12.63,13.71,20.13,24.39,35,45,16.22,22.47,18.78,28.4,20,34,.9,4.08,1.89,11.66,6,22,1.9,4.76,3.49,7.68,3,8-1,.64-9.07-11-20-25-4.56-5.87-14.12-18.12-25-30a265,265,0,0,0-34-32c-14.85-11.59-27.31-18.51-39-25-14-7.81-25.47-13-41-20-11.75-5.32-18.37-8.32-28-12-5.15-2-10.08-3.74-18-7-6.78-2.81-12.3-5.29-16-7"/><path class="path" d="M436.59,69.51c-.25,11.54-2.43,30-14,48-3.67,5.7-7.06,9.45-13,16-14.59,16.1-25.2,23.47-40,36a396.69,396.69,0,0,0-37,35c-11.68,12.69-19.45,23.46-35,45-16.22,22.47-18.77,28.4-20,34-.89,4.08-1.89,11.66-6,22-1.89,4.76-3.49,7.68-3,8,1,.64,9.08-11,20-25,4.57-5.87,14.12-18.12,25-30a266.33,266.33,0,0,1,34-32c14.86-11.59,27.31-18.51,39-25,14.05-7.81,25.48-13,41-20,11.75-5.32,18.37-8.32,28-12,5.16-2,10.09-3.74,18-7,6.79-2.81,12.3-5.29,16-7"/><path class="path" d="M251.63,330.51c.14-1.8.14-6.13-7-16-4.16-5.76-8.42-10.19-17-18-6.71-6.12-9.72-8.53-16-14-16.94-14.77-13.56-13.37-22-20a270.33,270.33,0,0,0-30-20h0a276,276,0,0,0-31-16s-30-13-64-16a120.11,120.11,0,0,0-13,0c-8.53.23-10.45.74-11,2-1,2.3,3.07,6.16,5,8,2.68,2.54,5.06,3.86,9,6,10.89,5.9,10.49,5.45,13,7,6.38,3.93,9.64,5.94,12,10a22,22,0,0,1,2.87,11,28,28,0,0,1-1,6c-1.42,6.24-2,9.47-4.19,12.62-1.1,1.55-1.29,1.28-2.81,3.38a33.91,33.91,0,0,0-3.87,7c-5.66,13.27-5.49,12.11-6,14-1.54,5.72-2.92,10.89-1,16,.66,1.76,2.06,4.41,12,11,11.66,7.72,17.5,11.59,26,14,6.14,1.74,10.46,1.92,14,6,2.55,2.93,2.05,4.84,5,8,4.12,4.4,9.63,5.54,12,6,6,1.15,9.1-.42,18-2,3.74-.67,9.49-1.12,21-2,15.76-1.22,19.18-.79,24-4,3.28-2.19,5.29-4.78,7-4,1,.43,1.56,1.82,2,12,.34,7.75.06,8.57,1,10,3.09,4.7,11.59,4.2,15,4,4.37-.26,12.27-.53,17-6,2-2.27.93-2.59,5-13,2.08-5.31,2.62-6,5-12C250.14,335.12,251.52,331.94,251.63,330.51Z"/><path class="path" d="M267.5,330.51c-.14-1.8-.13-6.13,7-16,4.17-5.76,8.42-10.19,17-18,6.71-6.12,9.72-8.53,16-14,16.94-14.77,13.56-13.37,22-20a271.3,271.3,0,0,1,30-20h0a276,276,0,0,1,31-16s30-13,64-16a120.14,120.14,0,0,1,13,0c8.53.23,10.45.74,11,2,1,2.3-3.06,6.16-5,8-2.67,2.54-5.06,3.86-9,6-10.88,5.9-10.49,5.45-13,7-6.38,3.93-9.64,5.94-12,10a22,22,0,0,0-2.87,11,28.66,28.66,0,0,0,1,6c1.42,6.24,2,9.47,4.19,12.62,1.11,1.55,1.29,1.28,2.81,3.38a33,33,0,0,1,3.87,7c5.66,13.27,5.5,12.11,6,14,1.54,5.72,2.92,10.89,1,16-.66,1.76-2.05,4.41-12,11-11.66,7.72-17.49,11.59-26,14-6.14,1.74-10.46,1.92-14,6-2.54,2.93-2,4.84-5,8-4.12,4.4-9.63,5.54-12,6-6,1.15-9.1-.42-18-2-3.73-.67-9.49-1.12-21-2-15.75-1.22-19.17-.79-24-4-3.28-2.19-5.29-4.78-7-4-1,.43-1.56,1.82-2,12-.33,7.75-.06,8.57-1,10-3.09,4.7-11.58,4.2-15,4-4.36-.26-12.27-.53-17-6-1.95-2.27-.93-2.59-5-13-2.07-5.31-2.62-6-5-12C269,335.12,267.62,331.94,267.5,330.51Z"/><path class="path" d="M318.5,322.51c3.41-5.78,11.25-17,25-22a56.17,56.17,0,0,1,16-3,69,69,0,0,1,22,2c7.85,2.08,12.56,2.56,13,5,.39,2.14-2.74,4.43-9,9a112.21,112.21,0,0,1-11,7c-7.12,4.08-10.69,6.12-13,7a50,50,0,0,1-21,3,37.46,37.46,0,0,1-14-3A34.74,34.74,0,0,1,318.5,322.51Z"/><path class="path" d="M201.54,322.51c-3.41-5.78-11.25-17-25-22a56.17,56.17,0,0,0-16-3,69,69,0,0,0-22,2c-7.85,2.08-12.56,2.56-13,5-.39,2.14,2.74,4.43,9,9a112.21,112.21,0,0,0,11,7c7.12,4.08,10.69,6.12,13,7a50,50,0,0,0,21,3,37.46,37.46,0,0,0,14-3A34.74,34.74,0,0,0,201.54,322.51Z"/><path class="path" d="M161.5,299.51c-1.5.52-7.58,2.64-10,9a14.48,14.48,0,0,0,2,14c2.33,2.85,5.29,3.8,9,5s7.07,2.26,11,1a14.22,14.22,0,0,0,8-7c1.73-3.49,1.38-6.6,1-10s-.83-7.47-4-10c-1.43-1.15-2.81-1.48-5-2C170.73,298.84,166.38,297.8,161.5,299.51Z"/><path class="path" d="M358.85,299.51c1.5.52,7.58,2.64,10,9a14.43,14.43,0,0,1-2,14c-2.32,2.85-5.28,3.8-9,5s-7.06,2.26-11,1a14.3,14.3,0,0,1-8-7c-1.72-3.49-1.37-6.6-1-10s.84-7.47,4-10c1.44-1.15,2.81-1.48,5-2C349.63,298.84,354,297.8,358.85,299.51Z"/><path class="path" d="M229,380a136.76,136.76,0,0,0-15,23c-2.09,4.08-4.21,8.76-3,14,.6,2.56,2.3,6.58,5,7,1.71.26,2.4-1.13,7-4a40.64,40.64,0,0,1,8-4c3.7-1.3,6.65-2.34,9-1s1.69,3.4,4,6,5,3.1,9,4a33.2,33.2,0,0,0,16-1,12.48,12.48,0,0,0,4-2c2.37-1.89,2.11-3.36,4-5,3-2.57,7.21-2.09,8-2a15.24,15.24,0,0,1,7,3c1.13.75,3,2.18,6,4a5.77,5.77,0,0,0,3,1,5.4,5.4,0,0,0,3-1c.43-.3,2.29-1.68,3-6a21.29,21.29,0,0,0-1-10,42.46,42.46,0,0,0-7-14c-1.84-2.41-3.75-4.32-7-9-.86-1.25-1.54-2.3-2-3"/><path class="path" d="M190,498c4-3.09,8.31-3.51,14-4,3.25-.29,3.18,0,11,0,10.11,0,10.48-.47,14,0,6.12.81,6.39,2.41,13,4,5.49,1.31,9.66,1.21,18,1a106,106,0,0,0,19-2c7.1-1.43,6.58-2.13,12-3,4.45-.72,9.63-.48,20,0,9.05.41,12.36.89,16,3a18.8,18.8,0,0,1,5,4c3.66,4.16,4.49,9.11,5,15,.77,8.81,1.31,14.91,0,24-1,7-2.46,17.17-9,28-2.83,4.68-5.65,7.91-11,14s-8.18,9.32-13,13-6.76,4-13,9c-3.64,2.9-3.22,3-8,7-9.27,7.81-9.86,6.69-14,11-5.6,5.82-6.75,10.17-10,10-1.88-.11-2.93-1.65-5-4-4.27-4.88-2.9-1.85-15-13-7.64-7.06-7.7-7.82-12-11-3.63-2.7-5-3.19-9-6a92.7,92.7,0,0,1-12-10,89.44,89.44,0,0,1-10-12c-5.05-7.06-8.51-11.78-11-19a62.31,62.31,0,0,1-3-16c-.09-1.06-.06-6,0-16a102.57,102.57,0,0,1,1-14,20.61,20.61,0,0,1,2-7A18.38,18.38,0,0,1,190,498Z"/><path class="path" d="M189,499a40.72,40.72,0,0,1,11,6,46.31,46.31,0,0,1,8,8c3,3.81,2.59,4.49,5,7a27.73,27.73,0,0,0,9,6,34.36,34.36,0,0,0,12,3c3.77.2,3.73-.62,10-1,2.15-.14,1.94,0,11,0,3.59,0,7.29,0,12,0s5.29-.07,7,0c6.37.23,6.43,1,10,1a30.83,30.83,0,0,0,14-4,31.14,31.14,0,0,0,6-4,28.62,28.62,0,0,0,3-3c2.15-2.53,2.24-3.62,4-6a24,24,0,0,1,5-5c2-1.54,2.94-1.71,7-4,2.1-1.19,5-3,5-3h0l-2-4"/><path class="path" d="M222,379a79.2,79.2,0,0,0-29,16,88.31,88.31,0,0,0-14,16c-4.58,6.33-10.24,14.28-14,26-2.89,9-5.41,16.86-3,26,1.08,4.07,3.06,8.05,7,16,4.21,8.46,4.91,8.32,6,12,2.26,7.61,1,14.34,0,20-.92,5-2.29,8.76-5,16-3.35,9-4.31,9.77-8,19-4.47,11.18-6.71,16.9-7,23-.36,7.85,1.62,13.81,3,18a61.28,61.28,0,0,0,14,23,62.14,62.14,0,0,0,11,9"/><path class="path" d="M296,381a79.11,79.11,0,0,1,29,16,88.31,88.31,0,0,1,14,16c4.58,6.33,10.24,14.28,14,26,2.9,9,5.41,16.86,3,26-1.08,4.07-3,8.05-7,16-4.2,8.46-4.91,8.32-6,12-2.26,7.61-1,14.34,0,20,.92,5,2.29,8.76,5,16,3.35,9,4.31,9.77,8,19,4.47,11.18,6.71,16.9,7,23a47.05,47.05,0,0,1-3,18,61.18,61.18,0,0,1-25,32"/><path class="path" d="M221,378a41.57,41.57,0,0,0-14,13c-3.25,5-3.5,8-8,13-4,4.4-5.41,3.81-9,8a28.51,28.51,0,0,0-7,14,27.7,27.7,0,0,0,4,19c2,3.29,3.76,6.12,7,7,4.85,1.3,9.77-2.62,14-6,5.76-4.6,6.14-7.24,11-11s9.41-4.95,13-6c3.33-1,5.92-1.37,20-2,17.95-.81,20.55-.48,23,0,3.82.74,7.55,2.16,15,5,8.61,3.27,13,5,16,8,2.15,2.13,3.3,4.11,7,7a24.15,24.15,0,0,0,7,4c2.65.91,4.77,1.65,7,1,3-.87,4.42-3.7,7-9s4-8.18,4-12c0-4.6-1.77-7.9-4-12-1.83-3.39-3.35-5.14-9-12-8.68-10.56-7.48-9.3-9-11a124.92,124.92,0,0,0-16-15"/><path class="path" d="M177,106c-.81,11.74,7.92,20.83,10,23s2.15,1.72,9,7c6.53,5,13.21,10.15,19,16a75.43,75.43,0,0,1,15,20c3.73,7.42,4.91,14.28,7,25a95.12,95.12,0,0,1,2,13c.65,9.41-.74,14.29,1,15,2.49,1,8.46-7.74,10-10,5.52-8.08,6.25-12.94,9-13,1.91,0,3.61,2.63,7,8,3.05,4.8,3.27,6.44,6,10,1.86,2.41,5.14,6.67,7,6,2.09-.76,1-7.2,1-14,0-7.5,1.81-13.67,5-26,2.44-9.43,3.66-14.14,6-18,2.15-3.54,5.43-7,12-14,4.9-5.2,7.34-7.79,10-10,6.41-5.33,8.23-4.93,16-11,5.26-4.12,7.93-6.25,10-10a25.52,25.52,0,0,0,3-13c-.08-5-2.12-9.05-6-17a87.77,87.77,0,0,0-6-11,76.12,76.12,0,0,0-17-18,76.41,76.41,0,0,0-43-16c-11.52-.87-20.2.71-27,2-8.51,1.61-18.52,3.5-30,10a72.94,72.94,0,0,0-30,31C179.2,98.11,177.3,101.66,177,106Z"/></g></g></g></svg>