<?xml version="1.0" standalone="no"?><!DOCTYPE svg PUBLIC "-//W3C//DTD SVG 1.1//EN" "http://www.w3.org/Graphics/SVG/1.1/DTD/svg11.dtd"><svg t="1573378062063" class="icon" viewBox="0 0 1024 1024" version="1.1" xmlns="http://www.w3.org/2000/svg" p-id="3871" xmlns:xlink="http://www.w3.org/1999/xlink" width="200" height="200"><defs><style type="text/css"></style></defs><path d="M512 0C229.272524 0 0 229.272524 0 512s229.272524 512 512 512 512-229.272524 512-512S794.727476 0 512 0z m241.359982 701.667784a36.571429 36.571429 0 1 1-51.71509 51.715091L512 563.715091 322.355108 753.359982a36.571429 36.571429 0 1 1-51.71509-51.71509L460.284909 512 270.640018 322.355108a36.571429 36.571429 0 0 1 51.71509-51.71509L512 460.284909l189.644892-189.644891a36.571429 36.571429 0 0 1 51.71509 51.71509L563.715091 512z" p-id="3872" fill="#ffffff"></path></svg>